# xmcd
#
# Track frame offsets:
#	150
#	15309
#	30094
#	42399
#	65849
#	77625
#	93786
#	106137
#	125347
#	138105
#
# Disc length: 2050 seconds
#
# Revision: 1
# Processed by: cddbd v1.4PL0 Copyright (c) Steve Scherf et al.
# Submitted via: audiograbber 1.81.02
#
DISCID=6c08000a
DTITLE=Kevin Collins - Merry Christmas From Home
DYEAR=1900
DGENRE=
TTITLE0=Christmas Times A Comin'
TTITLE1=Christmas Time With Or Without
TTITLE2=Up On A Housetop
TTITLE3=White Christmas
TTITLE4=Merry Christmas Polka
TTITLE5=All I Want For Christmas Is You
TTITLE6=Merry Christmas Straight To You
TTITLE7=Daddy's Stuff
TTITLE8=Frosty The Snowman
TTITLE9=Merry Christmas From Home
EXTD=
EXTT0=
EXTT1=
EXTT2=
EXTT3=
EXTT4=
EXTT5=
EXTT6=
EXTT7=
EXTT8=
EXTT9=
PLAYORDER=
